<svg width="45" height="54" viewBox="0 0 45 54" fill="none" xmlns="http://www.w3.org/2000/svg">
<path d="M44.82 11.01V31.77C44.82 37.85 39.66 42.78 33.28 42.78H14.31L0 53.16V31.77V11.01C0 4.93 5.16 0 11.54 0H33.29C39.66 0 44.82 4.93 44.82 11.01Z" fill="#1DA1F2"/>
<path d="M12.7102 27.92C12.3802 27.92 12.0402 27.77 11.8302 27.48C11.4602 26.99 11.5602 26.3 12.0402 25.93C12.5802 25.52 16.7302 21.92 19.4002 19.6L20.2002 18.9L23.5102 22.43L28.6802 17.54C29.1302 17.12 29.8302 17.14 30.2502 17.58C30.6702 18.02 30.6502 18.73 30.2102 19.15L23.4202 25.56L20.0502 21.97C18.2102 23.57 14.0102 27.21 13.3802 27.69C13.1802 27.84 12.9502 27.92 12.7102 27.92Z" fill="white"/>
<path d="M30.86 21.0999L32.57 15.3899L26.77 16.7699L30.86 21.0999Z" fill="white"/>
</svg>
