<svg width="120" height="97" viewBox="0 0 120 97" fill="none"
    xmlns="http://www.w3.org/2000/svg">
    <g clip-path="url(#clip0)">
        <path d="M120 7.30052C120 7.3019 120 7.3019 120 7.30329C120.001 8.22884 119.824 9.1447 119.475 10.0024C119.161 10.5566 118.834 11.1247 118.489 11.7052C118.194 12.204 117.882 12.7139 117.556 13.2363L112.783 20.8568L100.687 40.1826L85.7194 64.1113L81.7832 70.3948L69.4167 90.146L68.2636 91.9943C68.2085 92.0816 68.1479 92.1675 68.0845 92.2492L68.039 92.3074C64.1511 97.0751 57.155 97.7721 52.4128 93.862C51.7873 93.3452 51.2183 92.7605 50.7182 92.1204L49.8723 91.0507C49.7456 90.8914 49.6367 90.7182 49.5472 90.5353L48.9809 89.3797C48.9368 89.2897 48.8886 89.2024 48.8363 89.1193L45.932 84.479L44.6163 82.373L36.901 70.0415L25.4466 51.7521L21.9265 46.1295L1.83238 11.665C1.50861 11.1662 1.18484 10.6674 0.861079 10.1686C0.629621 9.76127 0.32101 9.12115 0.143284 8.28427C0.143284 8.28427 0 7.5998 0 6.88762C0 5.8055 0.757749 1.99105 3.92101 0.514043C4.47899 0.253558 5.07279 0.0789769 5.68174 0C17.0714 0.0180123 28.4611 0.0360246 39.8507 0.0540369C40.636 0.0471091 42.7839 0.135785 44.8533 1.62803C46.3123 2.67967 47.081 3.95993 47.4392 4.67072C47.9104 5.86508 48.2356 7.17997 48.4533 8.47824C48.7426 10.195 48.8432 11.8784 48.8459 13.2127L48.8514 16.3344L48.9107 47.2629C48.9107 47.5164 48.9258 47.8877 48.9465 48.3367C48.9561 48.5487 48.9961 49.4022 49.0402 49.7984C49.1779 51.0108 49.8144 51.9641 50.0638 52.3368C50.6714 53.2318 51.4801 53.9704 52.4239 54.4927C54.3348 55.5541 56.6314 55.6483 58.6236 54.749C58.8069 54.6659 58.9736 54.5648 60.5883 53.4175C61.2689 52.934 61.8282 52.5308 62.2167 52.2509L64.3867 50.6935L65.5274 49.8899L81.7846 38.441V38.3994C84.5552 36.3834 85.4507 32.6383 83.8953 29.5762C83.4144 28.6285 82.9226 27.7846 82.0918 27.1473C82.0298 27.0988 81.9692 27.0503 81.9113 26.9976C81.8273 26.9214 81.7377 26.8508 81.6441 26.7857L66.8004 16.3344L65.5247 15.4365L58.3743 10.4H58.3729L57.3575 9.68368C56.2112 8.67084 55.4879 7.18413 55.4879 5.527C55.4879 2.84871 57.3768 0.613803 59.8884 0.0969892C59.9338 0.0969892 60.4698 0.0983748 60.5166 0.0983748C61.3185 0.0997604 62.0445 0.0997604 62.1203 0.0997604C62.8119 0.0997604 77.1031 0.155183 111.578 0.292353L114.179 0.315908L114.365 0.317293C115.203 0.490488 115.814 0.773143 116.189 0.974049C119.41 2.706 120 6.52183 120 7.30052Z" fill="url(#paint0_linear)"/>
    </g>
    <defs>
        <linearGradient id="paint0_linear" x1="126.214" y1="67.7084" x2="-7.55762" y2="4.23849" gradientUnits="userSpaceOnUse">
            <stop offset="0.147861" stop-color="#AC3AE6"/>
            <stop offset="0.34351" stop-color="#AA39EB"/>
            <stop offset="0.538914" stop-color="#7C66FE"/>
            <stop offset="0.728759" stop-color="#43C2F9"/>
            <stop offset="0.954977" stop-color="#0CFFED"/>
        </linearGradient>
        <clipPath id="clip0">
            <rect width="120" height="96.3934" fill="white"/>
        </clipPath>
    </defs>
</svg>
